<?xml version="1.0" encoding="utf-8"?>
<!-- Generator: Adobe Illustrator 26.1.0, SVG Export Plug-In . SVG Version: 6.00 Build 0)  -->
<svg version="1.1" id="Layer_1" xmlns="http://www.w3.org/2000/svg" xmlns:xlink="http://www.w3.org/1999/xlink" x="0px" y="0px"
	 viewBox="0 0 220 277.5" style="enable-background:new 0 0 220 277.5;" xml:space="preserve">
<style type="text/css">
	.st0{fill:#ED1C24;}
</style>
<g>
	<path class="st0" d="M73.4,94.8c0,1.4-1.2,2.6-2.6,2.6c-1.4,0-2.6-1.2-2.6-2.6s1.2-2.6,2.6-2.6C72.3,92.2,73.4,93.3,73.4,94.8z"/>
	<path class="st0" d="M73.4,110.9c0,1.4-1.2,2.6-2.6,2.6c-1.4,0-2.6-1.2-2.6-2.6s1.2-2.6,2.6-2.6C72.3,108.3,73.4,109.5,73.4,110.9z
		"/>
	<path class="st0" d="M73.4,127c0,1.4-1.2,2.6-2.6,2.6c-1.4,0-2.6-1.2-2.6-2.6c0-1.4,1.2-2.6,2.6-2.6
		C72.3,124.5,73.4,125.6,73.4,127z"/>
	<path class="st0" d="M73.4,143.2c0,1.4-1.2,2.6-2.6,2.6c-1.4,0-2.6-1.2-2.6-2.6c0-1.4,1.2-2.6,2.6-2.6
		C72.3,140.6,73.4,141.8,73.4,143.2z"/>
	<path class="st0" d="M73.4,159.3c0,1.4-1.2,2.6-2.6,2.6c-1.4,0-2.6-1.2-2.6-2.6c0-1.4,1.2-2.6,2.6-2.6
		C72.3,156.7,73.4,157.9,73.4,159.3z"/>
	<path class="st0" d="M90.6,94.8c0,1.4-1.2,2.6-2.6,2.6c-1.4,0-2.6-1.2-2.6-2.6s1.2-2.6,2.6-2.6C89.4,92.2,90.6,93.3,90.6,94.8z"/>
	<path class="st0" d="M90.6,110.9c0,1.4-1.2,2.6-2.6,2.6c-1.4,0-2.6-1.2-2.6-2.6s1.2-2.6,2.6-2.6C89.4,108.3,90.6,109.5,90.6,110.9z
		"/>
	<path class="st0" d="M90.6,127c0,1.4-1.2,2.6-2.6,2.6c-1.4,0-2.6-1.2-2.6-2.6c0-1.4,1.2-2.6,2.6-2.6
		C89.4,124.5,90.6,125.6,90.6,127z"/>
	<path class="st0" d="M90.6,143.2c0,1.4-1.2,2.6-2.6,2.6c-1.4,0-2.6-1.2-2.6-2.6c0-1.4,1.2-2.6,2.6-2.6
		C89.4,140.6,90.6,141.8,90.6,143.2z"/>
	<path class="st0" d="M90.6,159.3c0,1.4-1.2,2.6-2.6,2.6c-1.4,0-2.6-1.2-2.6-2.6c0-1.4,1.2-2.6,2.6-2.6
		C89.4,156.7,90.6,157.9,90.6,159.3z"/>
	<path class="st0" d="M107.7,94.8c0,1.4-1.2,2.6-2.6,2.6c-1.4,0-2.6-1.2-2.6-2.6s1.2-2.6,2.6-2.6C106.6,92.2,107.7,93.3,107.7,94.8z
		"/>
	<path class="st0" d="M107.7,110.9c0,1.4-1.2,2.6-2.6,2.6c-1.4,0-2.6-1.2-2.6-2.6s1.2-2.6,2.6-2.6
		C106.6,108.3,107.7,109.5,107.7,110.9z"/>
	<path class="st0" d="M107.7,127c0,1.4-1.2,2.6-2.6,2.6c-1.4,0-2.6-1.2-2.6-2.6c0-1.4,1.2-2.6,2.6-2.6
		C106.6,124.5,107.7,125.6,107.7,127z"/>
	<path class="st0" d="M107.7,143.2c0,1.4-1.2,2.6-2.6,2.6c-1.4,0-2.6-1.2-2.6-2.6c0-1.4,1.2-2.6,2.6-2.6
		C106.6,140.6,107.7,141.8,107.7,143.2z"/>
	<path class="st0" d="M107.7,159.3c0,1.4-1.2,2.6-2.6,2.6c-1.4,0-2.6-1.2-2.6-2.6c0-1.4,1.2-2.6,2.6-2.6
		C106.6,156.7,107.7,157.9,107.7,159.3z"/>
	<path class="st0" d="M73.4,175.5c0,1.4-1.2,2.6-2.6,2.6c-1.4,0-2.6-1.2-2.6-2.6c0-1.4,1.2-2.6,2.6-2.6
		C72.3,172.9,73.4,174,73.4,175.5z"/>
	<path class="st0" d="M73.4,191.6c0,1.4-1.2,2.6-2.6,2.6c-1.4,0-2.6-1.2-2.6-2.6c0-1.4,1.2-2.6,2.6-2.6
		C72.3,189,73.4,190.2,73.4,191.6z"/>
	<path class="st0" d="M73.4,207.7c0,1.4-1.2,2.6-2.6,2.6c-1.4,0-2.6-1.2-2.6-2.6c0-1.4,1.2-2.6,2.6-2.6
		C72.3,205.2,73.4,206.3,73.4,207.7z"/>
	<path class="st0" d="M90.6,175.5c0,1.4-1.2,2.6-2.6,2.6c-1.4,0-2.6-1.2-2.6-2.6c0-1.4,1.2-2.6,2.6-2.6
		C89.4,172.9,90.6,174,90.6,175.5z"/>
	<path class="st0" d="M90.6,191.6c0,1.4-1.2,2.6-2.6,2.6c-1.4,0-2.6-1.2-2.6-2.6c0-1.4,1.2-2.6,2.6-2.6
		C89.4,189,90.6,190.2,90.6,191.6z"/>
	<path class="st0" d="M90.6,207.7c0,1.4-1.2,2.6-2.6,2.6c-1.4,0-2.6-1.2-2.6-2.6c0-1.4,1.2-2.6,2.6-2.6
		C89.4,205.2,90.6,206.3,90.6,207.7z"/>
	<path class="st0" d="M107.7,175.5c0,1.4-1.2,2.6-2.6,2.6c-1.4,0-2.6-1.2-2.6-2.6c0-1.4,1.2-2.6,2.6-2.6
		C106.6,172.9,107.7,174,107.7,175.5z"/>
	<path class="st0" d="M107.7,191.6c0,1.4-1.2,2.6-2.6,2.6c-1.4,0-2.6-1.2-2.6-2.6c0-1.4,1.2-2.6,2.6-2.6
		C106.6,189,107.7,190.2,107.7,191.6z"/>
	<path class="st0" d="M107.7,207.7c0,1.4-1.2,2.6-2.6,2.6c-1.4,0-2.6-1.2-2.6-2.6c0-1.4,1.2-2.6,2.6-2.6
		C106.6,205.2,107.7,206.3,107.7,207.7z"/>
	<path class="st0" d="M124.9,94.8c0,1.4-1.2,2.6-2.6,2.6c-1.4,0-2.6-1.2-2.6-2.6s1.2-2.6,2.6-2.6C123.8,92.2,124.9,93.3,124.9,94.8z
		"/>
	<path class="st0" d="M124.9,110.9c0,1.4-1.2,2.6-2.6,2.6c-1.4,0-2.6-1.2-2.6-2.6s1.2-2.6,2.6-2.6
		C123.8,108.3,124.9,109.5,124.9,110.9z"/>
	<path class="st0" d="M124.9,127c0,1.4-1.2,2.6-2.6,2.6c-1.4,0-2.6-1.2-2.6-2.6c0-1.4,1.2-2.6,2.6-2.6
		C123.8,124.5,124.9,125.6,124.9,127z"/>
	<path class="st0" d="M124.9,143.2c0,1.4-1.2,2.6-2.6,2.6c-1.4,0-2.6-1.2-2.6-2.6c0-1.4,1.2-2.6,2.6-2.6
		C123.8,140.6,124.9,141.8,124.9,143.2z"/>
	<path class="st0" d="M124.9,159.3c0,1.4-1.2,2.6-2.6,2.6c-1.4,0-2.6-1.2-2.6-2.6c0-1.4,1.2-2.6,2.6-2.6
		C123.8,156.7,124.9,157.9,124.9,159.3z"/>
	<path class="st0" d="M142.1,94.8c0,1.4-1.2,2.6-2.6,2.6c-1.4,0-2.6-1.2-2.6-2.6s1.2-2.6,2.6-2.6C140.9,92.2,142.1,93.3,142.1,94.8z
		"/>
	<path class="st0" d="M142.1,110.9c0,1.4-1.2,2.6-2.6,2.6c-1.4,0-2.6-1.2-2.6-2.6s1.2-2.6,2.6-2.6
		C140.9,108.3,142.1,109.5,142.1,110.9z"/>
	<path class="st0" d="M142.1,127c0,1.4-1.2,2.6-2.6,2.6c-1.4,0-2.6-1.2-2.6-2.6c0-1.4,1.2-2.6,2.6-2.6
		C140.9,124.5,142.1,125.6,142.1,127z"/>
	<path class="st0" d="M142.1,143.2c0,1.4-1.2,2.6-2.6,2.6c-1.4,0-2.6-1.2-2.6-2.6c0-1.4,1.2-2.6,2.6-2.6
		C140.9,140.6,142.1,141.8,142.1,143.2z"/>
	<path class="st0" d="M142.1,159.3c0,1.4-1.2,2.6-2.6,2.6c-1.4,0-2.6-1.2-2.6-2.6c0-1.4,1.2-2.6,2.6-2.6
		C140.9,156.7,142.1,157.9,142.1,159.3z"/>
	<path class="st0" d="M159.2,94.8c0,1.4-1.2,2.6-2.6,2.6c-1.4,0-2.6-1.2-2.6-2.6s1.2-2.6,2.6-2.6C158.1,92.2,159.2,93.3,159.2,94.8z
		"/>
	<path class="st0" d="M159.2,110.9c0,1.4-1.2,2.6-2.6,2.6c-1.4,0-2.6-1.2-2.6-2.6s1.2-2.6,2.6-2.6
		C158.1,108.3,159.2,109.5,159.2,110.9z"/>
	<path class="st0" d="M159.2,127c0,1.4-1.2,2.6-2.6,2.6c-1.4,0-2.6-1.2-2.6-2.6c0-1.4,1.2-2.6,2.6-2.6
		C158.1,124.5,159.2,125.6,159.2,127z"/>
	<path class="st0" d="M159.2,143.2c0,1.4-1.2,2.6-2.6,2.6c-1.4,0-2.6-1.2-2.6-2.6c0-1.4,1.2-2.6,2.6-2.6
		C158.1,140.6,159.2,141.8,159.2,143.2z"/>
	<path class="st0" d="M159.2,159.3c0,1.4-1.2,2.6-2.6,2.6c-1.4,0-2.6-1.2-2.6-2.6c0-1.4,1.2-2.6,2.6-2.6
		C158.1,156.7,159.2,157.9,159.2,159.3z"/>
	<path class="st0" d="M124.9,175.5c0,1.4-1.2,2.6-2.6,2.6c-1.4,0-2.6-1.2-2.6-2.6c0-1.4,1.2-2.6,2.6-2.6
		C123.8,172.9,124.9,174,124.9,175.5z"/>
	<path class="st0" d="M124.9,191.6c0,1.4-1.2,2.6-2.6,2.6c-1.4,0-2.6-1.2-2.6-2.6c0-1.4,1.2-2.6,2.6-2.6
		C123.8,189,124.9,190.2,124.9,191.6z"/>
	<path class="st0" d="M124.9,207.7c0,1.4-1.2,2.6-2.6,2.6c-1.4,0-2.6-1.2-2.6-2.6c0-1.4,1.2-2.6,2.6-2.6
		C123.8,205.2,124.9,206.3,124.9,207.7z"/>
	<path class="st0" d="M142.1,175.5c0,1.4-1.2,2.6-2.6,2.6c-1.4,0-2.6-1.2-2.6-2.6c0-1.4,1.2-2.6,2.6-2.6
		C140.9,172.9,142.1,174,142.1,175.5z"/>
	<path class="st0" d="M142.1,191.6c0,1.4-1.2,2.6-2.6,2.6c-1.4,0-2.6-1.2-2.6-2.6c0-1.4,1.2-2.6,2.6-2.6
		C140.9,189,142.1,190.2,142.1,191.6z"/>
	<path class="st0" d="M142.1,207.7c0,1.4-1.2,2.6-2.6,2.6c-1.4,0-2.6-1.2-2.6-2.6c0-1.4,1.2-2.6,2.6-2.6
		C140.9,205.2,142.1,206.3,142.1,207.7z"/>
	<path class="st0" d="M159.2,175.5c0,1.4-1.2,2.6-2.6,2.6c-1.4,0-2.6-1.2-2.6-2.6c0-1.4,1.2-2.6,2.6-2.6
		C158.1,172.9,159.2,174,159.2,175.5z"/>
	<path class="st0" d="M159.2,191.6c0,1.4-1.2,2.6-2.6,2.6c-1.4,0-2.6-1.2-2.6-2.6c0-1.4,1.2-2.6,2.6-2.6
		C158.1,189,159.2,190.2,159.2,191.6z"/>
	<path class="st0" d="M159.2,207.7c0,1.4-1.2,2.6-2.6,2.6c-1.4,0-2.6-1.2-2.6-2.6c0-1.4,1.2-2.6,2.6-2.6
		C158.1,205.2,159.2,206.3,159.2,207.7z"/>
</g>
</svg>
